<svg width="90" height="22" viewBox="0 0 90 22" fill="none" xmlns="http://www.w3.org/2000/svg">
<path d="M19.649 10.499L18.865 8.72657L18.5071 10.499L17.3482 16.3445H15.4565L18.047 3.81836H18.2515L21.6941 10.5842L22.7166 12.8508L23.7391 10.5842L27.1135 3.81836H27.301L29.9937 16.3445H28.119L26.8579 10.499L26.483 8.72657L25.8013 10.499L22.7677 16.3445H22.6655L19.649 10.499Z" fill="white"/>
<path d="M35.0132 16.5149C34.3088 16.5149 33.6555 16.3502 33.0533 16.0207C32.4625 15.6799 31.9854 15.2027 31.6218 14.5891C31.2696 13.9643 31.0935 13.2371 31.0935 12.4077C31.0935 11.5897 31.2468 10.8739 31.5536 10.2604C31.8717 9.64686 32.3205 9.16967 32.9 8.82882C33.4794 8.48797 34.1611 8.31755 34.945 8.31755C35.3995 8.31755 35.8256 8.39708 36.2232 8.55614C36.6209 8.71521 36.9561 8.91403 37.2287 9.15263C37.5014 9.37986 37.6832 9.60709 37.7741 9.83432L37.8082 8.52206H39.5635V16.3445H37.8252L37.7911 14.9641C37.598 15.3731 37.2458 15.7367 36.7345 16.0548C36.2232 16.3616 35.6495 16.5149 35.0132 16.5149ZM35.32 14.9811C35.9676 14.9811 36.5129 14.7596 36.9561 14.3165C37.3992 13.862 37.6207 13.2712 37.6207 12.5441V12.4248C37.6207 11.9362 37.5185 11.4988 37.3139 11.1125C37.1094 10.7262 36.8311 10.4251 36.4789 10.2093C36.1267 9.99339 35.7404 9.88545 35.32 9.88545C34.5928 9.88545 34.0304 10.124 33.6328 10.6012C33.2351 11.0671 33.0363 11.6749 33.0363 12.4248C33.0363 13.186 33.2294 13.8052 33.6157 14.2824C34.0134 14.7482 34.5815 14.9811 35.32 14.9811Z" fill="white"/>
<path d="M42.0728 8.52206H43.8452V9.97066C44.4701 8.86859 45.4472 8.31755 46.7765 8.31755C47.8785 8.31755 48.7704 8.66976 49.4521 9.37418C50.1338 10.0672 50.4747 11.0727 50.4747 12.3907C50.4747 13.2087 50.3042 13.9302 49.9634 14.5551C49.6339 15.18 49.1794 15.6628 48.6 16.0037C48.0319 16.3445 47.3957 16.5149 46.6912 16.5149C46.0323 16.5149 45.4585 16.4013 44.97 16.1741C44.4928 15.9355 44.1178 15.6003 43.8452 15.1686L43.8622 20.4858H42.0728V8.52206ZM46.2652 14.9641C47.0037 14.9641 47.5718 14.7312 47.9694 14.2653C48.3671 13.7882 48.5659 13.1803 48.5659 12.4418C48.5659 11.6692 48.3671 11.0557 47.9694 10.6012C47.5831 10.1354 47.0151 9.90249 46.2652 9.90249C45.8562 9.90249 45.4699 10.0047 45.1063 10.2093C44.7541 10.4024 44.4701 10.6864 44.2542 11.0614C44.0497 11.4249 43.9474 11.851 43.9474 12.3396V12.4589C43.9474 12.9474 44.0497 13.3848 44.2542 13.7711C44.4701 14.146 44.7541 14.4414 45.1063 14.6573C45.4585 14.8618 45.8448 14.9641 46.2652 14.9641Z" fill="white"/>
<path fill-rule="evenodd" clip-rule="evenodd" d="M15.4565 16.3447H17.3482L18.5071 10.4992L18.865 8.72676L19.6489 10.4992L19.7815 10.756L22.6654 16.3447H22.7677L25.8012 10.4992L26.4829 8.72676L26.8579 10.4992L28.119 16.3447H29.9937L27.301 3.81855H27.1135L23.7391 10.5844L22.7166 12.851L21.694 10.5844L18.2515 3.81855H18.0469L15.4565 16.3447ZM18.6234 16.5975L19.3754 12.8041L21.5102 16.9409C21.7333 17.3731 22.179 17.6447 22.6654 17.6447H22.7677C23.2531 17.6447 23.698 17.3743 23.9216 16.9435L26.0383 12.8647L26.8482 16.6189C26.9774 17.2174 27.5067 17.6447 28.119 17.6447H29.9937C30.3864 17.6447 30.7581 17.4672 31.0049 17.1617C31.2061 16.9126 31.3067 16.6003 31.2923 16.2854C31.6193 16.6198 31.99 16.9083 32.4037 17.1469C32.4122 17.1518 32.4207 17.1566 32.4293 17.1613C33.2279 17.5983 34.0966 17.8151 35.0132 17.8151C35.724 17.8151 36.4019 17.6707 37.0279 17.3716C37.2482 17.5429 37.5251 17.6447 37.8252 17.6447H39.5635C40.1126 17.6447 40.5822 17.3043 40.7727 16.8229V20.486C40.7727 21.204 41.3548 21.786 42.0727 21.786H43.8622C44.2077 21.786 44.539 21.6485 44.7829 21.4038C45.0268 21.1591 45.1633 20.8273 45.1622 20.4818L45.153 17.6201C45.642 17.7544 46.1582 17.8151 46.6912 17.8151C47.6139 17.8151 48.4823 17.5893 49.2641 17.1214C50.0575 16.6535 50.674 15.9914 51.109 15.1698C51.1308 15.1295 51.1521 15.089 51.1729 15.0484V16.3448C51.1729 17.0627 51.7549 17.6448 52.4729 17.6448H57.9946C58.3569 17.6448 58.6846 17.4966 58.9203 17.2575C59.1561 17.4966 59.4838 17.6448 59.8461 17.6448H61.7548C62.4728 17.6448 63.0548 17.0627 63.0548 16.3448V8.52232C63.0548 8.14067 62.8904 7.79744 62.6285 7.55961C62.8142 7.36217 62.9617 7.14426 63.0714 6.91116V16.3448C63.0714 17.0627 63.6534 17.6448 64.3714 17.6448H66.1438C66.441 17.6448 66.7153 17.5449 66.9346 17.3766C67.5576 17.6723 68.2319 17.8152 68.9387 17.8152C69.8535 17.8152 70.7188 17.5992 71.5101 17.1589C72.3242 16.7124 72.9697 16.0707 73.4361 15.2614C73.4477 15.2418 73.4591 15.2221 73.4704 15.2023V16.3448C73.4704 17.0627 74.0525 17.6448 74.7704 17.6448H76.611C77.329 17.6448 77.911 17.0627 77.911 16.3448V12.3228C77.911 11.8561 78.0278 11.7371 78.0584 11.7116C78.283 11.5409 78.4935 11.4754 78.7243 11.4754C78.7885 11.4754 78.8395 11.477 78.8789 11.4794L78.8958 11.4806C79.0069 11.5261 79.1231 11.5558 79.2411 11.5693C79.204 11.8541 79.186 12.1454 79.186 12.4421C79.186 13.3593 79.3707 14.2324 79.7538 15.0428L79.7578 15.0511C80.1712 15.9096 80.8142 16.5887 81.6407 17.0846L81.6558 17.0935C82.5286 17.6013 83.5479 17.8152 84.6443 17.8152C85.4156 17.8152 86.1309 17.7401 86.7662 17.5628C87.323 17.4074 87.8437 17.2054 88.2764 16.9285C88.812 16.5857 89.021 15.9058 88.7705 15.3214L88.3477 14.3349C88.8691 14.2063 89.2714 13.7623 89.3289 13.2064C89.3672 12.836 89.3869 12.4731 89.3869 12.1183C89.3869 10.7145 89.0421 9.43517 88.1765 8.46427C87.2704 7.42229 85.9604 7.01781 84.5251 7.01781C83.5575 7.01781 82.6462 7.23257 81.8226 7.68819C81.5016 7.86138 81.2067 8.065 80.9388 8.29735C80.8972 7.85787 80.633 7.46086 80.2259 7.2573C79.7872 7.03793 79.2539 7.01781 78.8947 7.01781C78.3167 7.01781 77.7702 7.14735 77.272 7.40269C77.0783 7.28809 76.8524 7.22231 76.611 7.22231H74.7704C74.0525 7.22231 73.4704 7.80434 73.4704 8.52232V9.53797C73.0613 8.78301 72.4822 8.17232 71.7411 7.73327C70.94 7.24024 70.029 7.01781 69.058 7.01781C68.511 7.01781 67.9825 7.10327 67.4779 7.27307V3.81862C67.4779 3.10065 66.8958 2.51862 66.1779 2.51862H64.3714C63.6534 2.51862 63.0714 3.10065 63.0714 3.81862V4.76059C62.9439 4.49927 62.7678 4.26143 62.5491 4.05316C62.0597 3.58706 61.4453 3.35369 60.7834 3.35369C60.1227 3.35369 59.4987 3.57884 59.0007 4.05316C58.5148 4.51589 58.2393 5.12461 58.2393 5.81257C58.2393 6.47761 58.4732 7.09589 58.9454 7.58488C58.6993 7.82143 58.5461 8.15398 58.5461 8.52232V13.463C58.3787 13.3844 58.1917 13.3405 57.9946 13.3405H55.6986V3.81862C55.6986 3.10065 55.1166 2.51862 54.3986 2.51862H52.4729C51.7549 2.51862 51.1729 3.10065 51.1729 3.81862V9.56937C50.9684 9.16747 50.7072 8.79735 50.3826 8.4665C49.4249 7.47909 48.1808 7.01775 46.7764 7.01775C45.9846 7.01775 45.2619 7.17375 44.6271 7.48364C44.4095 7.31955 44.1387 7.22225 43.8451 7.22225H42.0727C41.473 7.22225 40.9682 7.62833 40.8181 8.18051C40.6681 7.62833 40.1632 7.22225 39.5635 7.22225H37.8081C37.513 7.22225 37.2404 7.32072 37.0219 7.48691C36.9186 7.43803 36.8132 7.39221 36.706 7.34932C36.1456 7.12515 35.5546 7.01775 34.945 7.01775C33.9682 7.01775 33.0511 7.23185 32.2408 7.7085C31.4444 8.17697 30.8269 8.83793 30.3995 9.66217L30.3908 9.6792C30.2598 9.94115 30.1518 10.2128 30.0654 10.4929L28.5719 3.54534C28.4432 2.94634 27.9136 2.51855 27.301 2.51855H27.1135C26.6206 2.51855 26.1701 2.79729 25.9502 3.23835L22.7152 9.72465L19.4101 3.22902C19.1883 2.79309 18.7406 2.51855 18.2515 2.51855H18.0469C17.4305 2.51855 16.8987 2.95156 16.7739 3.55528L14.1834 16.0814C14.1043 16.4643 14.2016 16.8625 14.4485 17.1656C14.6953 17.4688 15.0655 17.6447 15.4565 17.6447H17.3482C17.9687 17.6447 18.5027 17.2062 18.6234 16.5975ZM36.7345 16.055C36.6643 16.0971 36.593 16.1363 36.5205 16.1726C36.0646 16.4009 35.5622 16.5151 35.0132 16.5151C34.3088 16.5151 33.6555 16.3504 33.0533 16.0209C32.4625 15.6801 31.9853 15.2029 31.6217 14.5893C31.2695 13.9645 31.0934 13.2373 31.0934 12.4079C31.0934 11.5899 31.2468 10.8741 31.5536 10.2606C31.8717 9.64705 32.3205 9.16987 32.8999 8.82902C33.4794 8.48817 34.1611 8.31775 34.945 8.31775C35.3995 8.31775 35.8255 8.39728 36.2232 8.55634C36.3204 8.59522 36.4139 8.63648 36.5036 8.68011C36.7663 8.80784 36.997 8.95592 37.1957 9.12437C37.2068 9.13379 37.2178 9.14327 37.2287 9.15282C37.5014 9.38005 37.6832 9.60729 37.774 9.83452L37.8081 8.52225H39.5635V16.3447H37.8252L37.7911 14.9643C37.7734 15.0017 37.7544 15.0387 37.7341 15.0753L37.7271 15.0878C37.5603 15.3835 37.3065 15.6543 36.9656 15.9003C36.8925 15.953 36.8155 16.0046 36.7345 16.055ZM33.0363 12.425C33.0363 11.6751 33.2351 11.0673 33.6327 10.6014C34.0304 10.1242 34.5928 9.88565 35.3199 9.88565C35.7212 9.88565 36.0915 9.98401 36.4307 10.1807C36.4468 10.1901 36.4628 10.1997 36.4788 10.2095C36.525 10.2377 36.5699 10.2675 36.6135 10.2987C36.8794 10.489 37.0982 10.7337 37.2698 11.0328C37.2849 11.059 37.2996 11.0856 37.3139 11.1127C37.5184 11.499 37.6207 11.9364 37.6207 12.425V12.5443C37.6207 12.9932 37.5362 13.3903 37.3673 13.7353C37.2626 13.949 37.1255 14.1428 36.956 14.3167C36.8965 14.3761 36.8352 14.4316 36.7721 14.4831C36.6209 14.6064 36.4591 14.7068 36.2867 14.7843C35.9948 14.9157 35.6725 14.9813 35.3199 14.9813C34.5814 14.9813 34.0134 14.7484 33.6157 14.2826C33.2294 13.8054 33.0363 13.1862 33.0363 12.425ZM36.3207 12.5443C36.3207 12.9809 36.1994 13.2278 36.0308 13.4034C35.842 13.5897 35.6324 13.6813 35.3199 13.6813C34.8912 13.6813 34.7164 13.564 34.615 13.4506C34.4625 13.2554 34.3363 12.9491 34.3363 12.425C34.3363 11.9124 34.4671 11.6264 34.6215 11.4455L34.6314 11.4337C34.7388 11.3048 34.9054 11.1856 35.3199 11.1856C35.505 11.1856 35.6555 11.2296 35.7995 11.3178C35.9416 11.4049 36.0628 11.528 36.165 11.721C36.2591 11.8987 36.3207 12.1231 36.3207 12.425V12.5443ZM44.1882 15.6067C44.06 15.4738 43.9456 15.3279 43.8451 15.1688L43.8622 20.486H42.0727V8.52225H43.8451V9.97086C44.0318 9.64162 44.2499 9.36157 44.4995 9.13069L44.5096 9.12138C44.5759 9.06059 44.6444 9.00326 44.7151 8.94937C44.8504 8.84628 44.9937 8.7558 45.1451 8.67795C45.6122 8.43781 46.1559 8.31775 46.7764 8.31775C47.8785 8.31775 48.7704 8.66996 49.4521 9.37437C50.1338 10.0674 50.4746 11.0729 50.4746 12.3909C50.4746 13.2089 50.3042 13.9304 49.9633 14.5553C49.6339 15.1801 49.1794 15.663 48.6 16.0039C48.0319 16.3447 47.3956 16.5151 46.6912 16.5151C46.1109 16.5151 45.5967 16.427 45.1486 16.2508C45.0878 16.2269 45.0283 16.2014 44.9699 16.1743C44.6686 16.0236 44.408 15.8344 44.1882 15.6067ZM44.8904 14.5086C44.7019 14.363 44.5367 14.1903 44.3946 13.9906C44.345 13.9208 44.2981 13.8477 44.2541 13.7713C44.0496 13.385 43.9474 12.9476 43.9474 12.459V12.3398C43.9474 11.9247 44.0212 11.5548 44.1688 11.23C44.1949 11.1724 44.2234 11.1163 44.2541 11.0616C44.387 10.8308 44.5456 10.6345 44.7301 10.4727C44.8454 10.3715 44.9708 10.2837 45.1063 10.2095C45.2027 10.1552 45.3008 10.1081 45.4005 10.0683C45.6764 9.95788 45.9647 9.90269 46.2652 9.90269C47.015 9.90269 47.5831 10.1356 47.9694 10.6014C48.367 11.0559 48.5659 11.6694 48.5659 12.442C48.5659 13.1805 48.367 13.7884 47.9694 14.2655C47.5717 14.7314 47.0037 14.9643 46.2652 14.9643C45.8448 14.9643 45.4585 14.862 45.1063 14.6575C45.0877 14.6462 45.0694 14.6346 45.0512 14.6228C44.9959 14.5868 44.9422 14.5487 44.8904 14.5086ZM45.7723 13.5408C45.6254 13.4481 45.4998 13.3226 45.3928 13.1432C45.3045 12.9687 45.2474 12.7497 45.2474 12.459V12.3398C45.2474 12.0399 45.308 11.842 45.3842 11.7042C45.4897 11.5231 45.6057 11.4183 45.7314 11.3494L45.7436 11.3425C45.9166 11.2452 46.084 11.2027 46.2652 11.2027C46.7292 11.2027 46.8874 11.3332 46.9687 11.4313C46.9727 11.4361 46.9768 11.4409 46.9808 11.4457C46.9842 11.4496 46.9876 11.4536 46.991 11.4575C47.1287 11.6148 47.2659 11.8939 47.2659 12.442C47.2659 12.931 47.1412 13.2255 46.9763 13.4266C46.8757 13.5421 46.7027 13.6643 46.2652 13.6643C46.0723 13.6643 45.916 13.6215 45.7723 13.5408ZM62.0105 5.81257C62.0105 6.16478 61.8912 6.46019 61.6526 6.69878C61.4253 6.93737 61.1356 7.05667 60.7834 7.05667C60.4312 7.05667 60.1358 6.93737 59.8972 6.69878C59.6586 6.46019 59.5393 6.16478 59.5393 5.81257C59.5393 5.49445 59.6586 5.22177 59.8972 4.99454C60.1358 4.76731 60.4312 4.65369 60.7834 4.65369C61.1243 4.65369 61.414 4.76731 61.6526 4.99454C61.8912 5.22177 62.0105 5.49445 62.0105 5.81257ZM66.1779 14.9643L66.1438 16.3448H64.3714V3.81862H66.1779V8.64161L66.0927 9.97092C66.1204 9.90554 66.152 9.84157 66.1873 9.77901L66.1946 9.76613C66.3504 9.49505 66.5772 9.25062 66.8751 9.03285C66.9803 8.95592 67.0945 8.88231 67.2174 8.81204C67.2736 8.77946 67.3302 8.74849 67.3873 8.71914C67.4172 8.70373 67.4473 8.68878 67.4774 8.67426C67.9715 8.43663 68.4984 8.31781 69.058 8.31781C69.8306 8.31781 70.5009 8.49391 71.069 8.84612C71.6485 9.18697 72.0916 9.66984 72.3983 10.2947C72.7051 10.9082 72.8585 11.624 72.8585 12.4421C72.8585 13.2715 72.6767 13.9929 72.3131 14.6064C71.9609 15.22 71.4837 15.6915 70.8816 16.021C70.2908 16.3505 69.6431 16.5152 68.9387 16.5152C68.3965 16.5152 67.8997 16.4038 67.4482 16.181C67.3699 16.1424 67.293 16.1004 67.2174 16.0551C67.0998 15.9802 66.9907 15.9028 66.89 15.8229C66.8602 15.7993 66.8311 15.7754 66.8028 15.7512L66.7883 15.7388C66.5133 15.5019 66.3098 15.2437 66.1779 14.9643ZM66.638 13.7543L66.6342 13.747C66.4322 13.3625 66.3312 12.9275 66.3312 12.4421V12.3228C66.3312 11.8932 66.4086 11.5132 66.5632 11.1828C66.6703 10.9539 66.8146 10.7487 66.9959 10.5674C67.0464 10.5156 67.0982 10.4668 67.1514 10.4209C67.2861 10.3045 67.4294 10.2072 67.5813 10.1288C67.895 9.96672 68.2453 9.88571 68.632 9.88571C69.3818 9.88571 69.9499 10.1243 70.3362 10.6015C70.7339 11.0673 70.9327 11.6808 70.9327 12.4421C70.9327 13.1919 70.7339 13.8055 70.3362 14.2826C69.9385 14.7485 69.3705 14.9814 68.632 14.9814C68.2703 14.9814 67.9339 14.9015 67.6227 14.7417C67.5721 14.7158 67.5223 14.6877 67.4731 14.6576C67.3846 14.6015 67.3003 14.5397 67.2202 14.4721C66.9919 14.2796 66.7978 14.0403 66.638 13.7543ZM69.6327 12.4421C69.6327 12.948 69.505 13.2463 69.3427 13.4441C69.2421 13.5595 69.069 13.6814 68.632 13.6814C68.4504 13.6814 68.3021 13.6391 68.1606 13.5542C68.0257 13.4669 67.8969 13.3378 67.7804 13.1336C67.69 12.9579 67.6312 12.7369 67.6312 12.4421V12.3228C67.6312 11.8806 67.7551 11.6467 67.9151 11.4866L67.9267 11.4749C68.1196 11.2771 68.3268 11.1857 68.632 11.1857C69.0853 11.1857 69.2408 11.3145 69.3258 11.4194C69.3329 11.4282 69.3401 11.4369 69.3475 11.4455C69.499 11.623 69.6327 11.9126 69.6327 12.4421ZM78.6532 10.1764C78.3922 10.1839 78.1421 10.2327 77.9031 10.3229C77.8247 10.3525 77.7475 10.3865 77.6715 10.425C77.5298 10.4968 77.3921 10.584 77.2586 10.6867C77.0442 10.856 76.883 11.0757 76.7751 11.3459C76.6657 11.6197 76.611 11.9453 76.611 12.3228V16.3448H74.7704V8.52232H76.611V10.0561C76.6262 10.0124 76.6422 9.96944 76.659 9.92717L76.6642 9.91402C76.7529 9.69369 76.8633 9.49292 76.9955 9.31172C77.1376 9.11686 77.3048 8.94461 77.4972 8.79499C77.6292 8.69231 77.7672 8.60621 77.911 8.53667C78.0478 8.47055 78.1899 8.41942 78.3374 8.38326C78.5153 8.33962 78.7011 8.31781 78.8947 8.31781L78.9015 8.31781C79.2614 8.31824 79.5091 8.35232 79.6445 8.42006L79.3889 10.2777C79.2867 10.2095 79.0651 10.1754 78.7243 10.1754C78.7005 10.1754 78.6768 10.1758 78.6532 10.1764ZM88.0869 12.1183C88.0869 12.425 88.0699 12.7431 88.0358 13.0726H82.4118L82.4158 13.0945C82.5173 13.6429 82.6943 14.069 82.947 14.3726C83.0084 14.4464 83.0743 14.513 83.1446 14.5724C83.5196 14.8791 84.0365 15.0325 84.6955 15.0325C85.2408 15.0325 85.6896 14.9871 86.0418 14.8962C86.1469 14.8691 86.2494 14.8389 86.3494 14.8057C86.5847 14.7277 86.8059 14.6329 87.0132 14.5212L87.5756 15.8335C87.3193 15.9975 86.9797 16.1431 86.5568 16.2701C86.5111 16.2839 86.4644 16.2974 86.4168 16.3107L86.3711 16.3231C85.8916 16.4512 85.316 16.5152 84.6443 16.5152C83.7127 16.5152 82.9344 16.3334 82.3095 15.9698C81.6847 15.5949 81.2245 15.1007 80.9291 14.4872C80.6337 13.8623 80.486 13.1806 80.486 12.4421C80.486 11.6127 80.6564 10.8855 80.9973 10.2606C81.3495 9.63575 81.8324 9.15856 82.4459 8.82908C83.0594 8.48823 83.7525 8.31781 84.5251 8.31781C85.7294 8.31781 86.6213 8.65297 87.2007 9.32331C87.7915 9.98228 88.0869 10.9139 88.0869 12.1183ZM82.4118 11.7945L82.4149 11.7726C82.4945 11.231 82.6651 10.805 82.9267 10.4945C83.2781 10.0773 83.7939 9.86866 84.4739 9.86866C85.0647 9.86866 85.5192 10.0164 85.8373 10.3118C85.8972 10.3652 85.9512 10.4261 85.9994 10.4945C86.1897 10.7642 86.289 11.15 86.2975 11.6517C86.2981 11.6913 86.2982 11.7316 86.2978 11.7726L86.2975 11.7945H82.4118ZM54.3986 3.81862V14.6405H57.9946V16.3448H52.4729V3.81862H54.3986ZM61.7548 16.3448V8.52232H59.8461V16.3448H61.7548Z" fill="black" fill-opacity="0.4"/>
<path d="M52.4727 3.81885H54.3984V14.6408H57.9944V16.345H52.4727V3.81885Z" fill="#E1E3E9"/>
<path d="M59.8459 8.52255H61.7546V16.345H59.8459V8.52255ZM60.7832 7.0569C60.431 7.0569 60.1356 6.9376 59.897 6.69901C59.6584 6.46042 59.5391 6.16502 59.5391 5.81281C59.5391 5.49468 59.6584 5.222 59.897 4.99477C60.1356 4.76754 60.431 4.65392 60.7832 4.65392C61.1241 4.65392 61.4138 4.76754 61.6524 4.99477C61.891 5.222 62.0103 5.49468 62.0103 5.81281C62.0103 6.16502 61.891 6.46042 61.6524 6.69901C61.4251 6.9376 61.1354 7.0569 60.7832 7.0569Z" fill="#E1E3E9"/>
<path d="M68.9385 16.5154C68.3023 16.5154 67.7285 16.362 67.2173 16.0553C66.7173 15.7372 66.3708 15.3736 66.1777 14.9646L66.1436 16.345H64.3712V3.81885H66.1777V8.64184L66.0925 9.97115C66.2856 9.51669 66.6605 9.13039 67.2173 8.81227C67.7853 8.48278 68.3989 8.31804 69.0578 8.31804C69.8304 8.31804 70.5008 8.49414 71.0688 8.84635C71.6483 9.1872 72.0914 9.67007 72.3981 10.295C72.7049 10.9085 72.8583 11.6243 72.8583 12.4423C72.8583 13.2717 72.6765 13.9932 72.3129 14.6067C71.9607 15.2202 71.4835 15.6917 70.8814 16.0212C70.2906 16.3507 69.643 16.5154 68.9385 16.5154ZM68.6318 14.9816C69.3703 14.9816 69.9384 14.7487 70.336 14.2829C70.7337 13.8057 70.9325 13.1922 70.9325 12.4423C70.9325 11.6811 70.7337 11.0675 70.336 10.6017C69.9497 10.1245 69.3816 9.88594 68.6318 9.88594C67.9842 9.88594 67.4388 10.1132 66.9957 10.5676C66.5526 11.0107 66.331 11.5959 66.331 12.323V12.4423C66.331 12.9308 66.4333 13.3683 66.6378 13.7546C66.8537 14.1409 67.132 14.4419 67.4729 14.6578C67.8251 14.8737 68.2114 14.9816 68.6318 14.9816Z" fill="#E1E3E9"/>
<path d="M74.7702 8.52255H76.6108V10.0564C76.7926 9.53373 77.088 9.11335 77.497 8.79522C77.906 8.4771 78.3719 8.31804 78.8945 8.31804C79.2581 8.31804 79.508 8.35212 79.6443 8.42029L79.3887 10.2779C79.2865 10.2097 79.0649 10.1757 78.7241 10.1757C78.1901 10.1757 77.7015 10.3461 77.2584 10.6869C76.8267 11.0278 76.6108 11.5731 76.6108 12.323V16.345H74.7702V8.52255Z" fill="#E1E3E9"/>
<path d="M84.6442 16.5154C83.7125 16.5154 82.9342 16.3336 82.3093 15.9701C81.6845 15.5951 81.2243 15.1009 80.9289 14.4874C80.6335 13.8625 80.4858 13.1808 80.4858 12.4423C80.4858 11.6129 80.6562 10.8858 80.9971 10.2609C81.3493 9.63598 81.8322 9.1588 82.4457 8.82931C83.0592 8.48846 83.7523 8.31804 84.5249 8.31804C85.7292 8.31804 86.6211 8.6532 87.2005 9.32354C87.7913 9.98251 88.0867 10.9142 88.0867 12.1185C88.0867 12.4253 88.0697 12.7434 88.0356 13.0729H82.4116C82.5366 13.7659 82.7809 14.2658 83.1444 14.5726C83.5194 14.8794 84.0363 15.0327 84.6953 15.0327C85.2406 15.0327 85.6894 14.9873 86.0416 14.8964C86.3938 14.8055 86.7176 14.6805 87.013 14.5215L87.5754 15.8337C87.2914 16.0155 86.9051 16.1746 86.4166 16.3109C85.928 16.4473 85.3372 16.5154 84.6442 16.5154ZM86.2973 11.7947C86.3086 11.0903 86.1553 10.596 85.8371 10.312C85.519 10.0166 85.0645 9.8689 84.4737 9.8689C83.2808 9.8689 82.5934 10.5108 82.4116 11.7947H86.2973Z" fill="#E1E3E9"/>
<path fill-rule="evenodd" clip-rule="evenodd" d="M1.62109 6.77535C1.62109 4.13451 3.91449 1.98584 6.73381 1.98584C9.55313 1.98584 11.8465 4.13451 11.8465 6.77535C11.8465 10.7437 7.66547 14.0941 7.00839 14.6207C6.96753 14.6534 6.9403 14.6753 6.92855 14.6856C6.87361 14.7337 6.80371 14.7579 6.73381 14.7579C6.66391 14.7579 6.59401 14.7337 6.5391 14.6856C6.52735 14.6753 6.50014 14.6535 6.45931 14.6207C5.80239 14.0943 1.62109 10.7438 1.62109 6.77535ZM6.73391 9.55032C8.12996 9.55032 9.26168 8.40161 9.26168 6.9846C9.26168 5.56758 8.12996 4.41887 6.73391 4.41887C5.33787 4.41887 4.20615 5.56758 4.20615 6.9846C4.20615 8.40161 5.33787 9.55032 6.73391 9.55032Z" fill="#E1E3E9"/>
<path fill-rule="evenodd" clip-rule="evenodd" d="M7.7759 15.6718L7.77351 15.6737C7.46974 15.9347 7.09532 16.0581 6.73376 16.0581C6.37235 16.0581 5.99789 15.9348 5.69403 15.6737L5.69168 15.6718L5.64635 15.6354L5.64634 15.6354L5.64418 15.6337C5.59393 15.5934 5.52409 15.5374 5.4377 15.4666H3.85242C3.47586 15.4666 3.17061 15.7719 3.17061 16.1484V18.0544C3.17061 18.431 3.47586 18.7362 3.85242 18.7362H9.61687C9.99343 18.7362 10.2987 18.431 10.2987 18.0544V16.1484C10.2987 15.7719 9.99343 15.4666 9.61687 15.4666H8.02985C7.94351 15.5374 7.87369 15.5933 7.82346 15.6336L7.82345 15.6336L7.82127 15.6354L7.7759 15.6718ZM6.61528 14.7338C6.65284 14.75 6.6933 14.7581 6.73376 14.7581C6.80366 14.7581 6.87356 14.7339 6.9285 14.6858C6.94025 14.6755 6.96747 14.6536 7.00831 14.6209L7.00834 14.6209C7.66542 14.0943 11.8465 10.7439 11.8465 6.77555C11.8465 4.1347 9.55308 1.98604 6.73376 1.98604C3.91444 1.98604 1.62104 4.1347 1.62104 6.77555C1.62104 10.1151 4.58201 13.017 5.91202 14.1666H5.9165C5.9165 14.1666 5.93134 14.1811 5.95714 14.2055C6.18565 14.4017 6.36149 14.5426 6.45926 14.6209L6.45932 14.621C6.50012 14.6537 6.52731 14.6755 6.53905 14.6858C6.54374 14.6899 6.54854 14.6939 6.55343 14.6976C6.57494 14.7112 6.59566 14.7234 6.61528 14.7338ZM4.00624 14.1666C3.61542 13.7742 3.1938 13.3164 2.78145 12.8046C1.58403 11.3182 0.321045 9.19993 0.321045 6.77555C0.321045 3.33811 3.2777 0.686035 6.73376 0.686035C10.1898 0.686035 13.1465 3.33811 13.1465 6.77555C13.1465 9.19986 11.8836 11.3181 10.6862 12.8044C10.2738 13.3163 9.85215 13.7742 9.46129 14.1666H9.61687C10.7114 14.1666 11.5987 15.0539 11.5987 16.1484V18.0544C11.5987 19.149 10.7114 20.0362 9.61687 20.0362H3.85242C2.75789 20.0362 1.87061 19.149 1.87061 18.0544V16.1484C1.87061 15.0539 2.75789 14.1666 3.85242 14.1666H4.00624ZM7.96163 6.98479C7.96163 7.70217 7.39374 8.25052 6.73387 8.25052C6.07399 8.25052 5.5061 7.70217 5.5061 6.98479C5.5061 6.26741 6.07399 5.71907 6.73387 5.71907C7.39374 5.71907 7.96163 6.26741 7.96163 6.98479ZM6.73387 9.55052C8.12991 9.55052 9.26163 8.4018 9.26163 6.98479C9.26163 5.56778 8.12991 4.41907 6.73387 4.41907C5.33782 4.41907 4.2061 5.56778 4.2061 6.98479C4.2061 8.4018 5.33782 9.55052 6.73387 9.55052ZM8.8537 17.5353H4.61559V16.6676H8.8537V17.5353Z" fill="black" fill-opacity="0.4"/>
<path fill-rule="evenodd" clip-rule="evenodd" d="M3.85247 15.4668C3.47591 15.4668 3.17065 15.7721 3.17065 16.1486V18.0546C3.17065 18.4312 3.47591 18.7364 3.85247 18.7364H9.61692C9.99347 18.7364 10.2987 18.4312 10.2987 18.0546V16.1486C10.2987 15.7721 9.99347 15.4668 9.61692 15.4668H3.85247ZM8.85375 16.6677H4.61564V17.5355H8.85375V16.6677Z" fill="white"/>
</svg>
