<?xml version="1.0" standalone="no"?>
<!DOCTYPE svg PUBLIC "-//W3C//DTD SVG 20010904//EN"
 "http://www.w3.org/TR/2001/REC-SVG-20010904/DTD/svg10.dtd">
<svg version="1.0" xmlns="http://www.w3.org/2000/svg"
 width="700.000000pt" height="700.000000pt" viewBox="0 0 700.000000 700.000000"
 preserveAspectRatio="xMidYMid meet">
<metadata>
Created by potrace 1.11, written by Peter Selinger 2001-2013
</metadata>
<g transform="translate(0.000000,700.000000) scale(0.100000,-0.100000)"
fill="#000000" stroke="none">
<path d="M3328 6836 c-1 -2 -32 -6 -68 -9 -36 -3 -90 -11 -120 -17 -30 -6 -66
-13 -80 -15 -46 -9 -65 -13 -142 -34 -42 -11 -89 -26 -105 -32 -42 -17 -64
-26 -103 -40 -69 -24 -275 -131 -359 -186 -450 -292 -760 -742 -857 -1243 -34
-180 -38 -439 -8 -655 9 -66 53 -276 70 -335 27 -95 96 -293 121 -347 12 -28
23 -54 23 -57 0 -13 143 -293 196 -384 94 -160 264 -408 381 -552 19 -24 127
-154 138 -166 333 -375 681 -690 983 -893 35 -24 66 -49 69 -58 15 -39 115
-34 128 6 3 10 16 23 30 29 13 6 81 59 152 118 723 605 1276 1311 1552 1982
52 128 117 327 137 418 1 7 9 43 18 82 52 231 67 559 32 747 -3 17 -8 47 -11
67 -8 50 -58 231 -84 300 -39 106 -123 267 -196 378 -275 412 -732 726 -1220
840 -184 42 -270 53 -472 56 -110 1 -203 1 -205 0z m292 -991 c90 -11 115 -17
197 -45 311 -106 557 -378 637 -705 100 -410 -44 -832 -368 -1077 -246 -185
-519 -238 -850 -164 -16 4 -55 18 -88 31 -435 177 -686 619 -624 1100 12 91
70 285 89 293 4 2 7 9 7 16 0 27 105 180 175 254 160 170 376 278 600 299 33
3 61 6 62 7 4 3 119 -3 163 -9z"/>
<path d="M2298 1488 c-75 -15 -128 -57 -171 -133 -22 -39 -22 -46 -24 -481 -3
-493 -2 -499 64 -568 20 -21 55 -47 77 -59 l41 -22 1215 0 1215 0 40 22 c51
27 91 67 119 118 20 39 21 52 24 474 2 380 1 441 -14 486 -19 62 -66 115 -132
147 l-47 23 -1185 0 c-652 1 -1202 -3 -1222 -7z m2062 -643 l1 -175 -845 0
-844 0 0 168 c0 92 2 170 4 174 3 4 382 8 844 8 l838 0 2 -175z"/>
</g>
</svg>
